<svg xmlns="http://www.w3.org/2000/svg" enable-background="new 0 0 1246.438 205.49" height="500" viewBox="0 0 275 250" width="550">
      <path d="m50.38 102.676c.654-2.725 1.679-3.67 4.542-3.604 8.801.203 17.609.073 26.6.073v23.249c-1.839 0-3.598-.029-5.364
             0-10.16.182-17.726 7.762-17.697 17.719.022 9.462 7.667 17.108 17.486 17.115 42.61.072 85.221.072 127.838 0 9.957-.021
             17.457-7.776 17.377-17.566-.073-9.666-7.828-17.195-17.762-17.261-1.672 0-3.343 0-5.233 0 0-7.754 0-15.211 0-22.893.545-.109
             1.221-.349 1.89-.349 8.474-.021 16.948.007 25.422-.043 1.751-.015 2.9.218 3.401 2.231 6.424 26.033 12.915 52.037 19.39 78.055.051.226-.029.473-.065.938-72.19
             0-144.394 0-217.078 0 2.943-11.934 5.792-23.533 8.677-35.125 3.533-14.18 7.175-28.338 10.576-42.539z" fill="#008575"/>
      <path d="m186.024 145.468c-30.779 0-61.463 0-92.416 0 0-38.534 0-77.052 0-115.92h92.416z" fill="#fff"/>
      <path d="m186.024 29.548c-30.88 0-61.478 0-92.416 0v115.92h92.416c0-38.751 0-77.27 0-115.92zm-131.102 69.523c-2.864-.065-3.888.879-4.542 3.604-3.401 14.201-7.042
             28.359-10.575 42.538-2.885 11.592-5.734 23.191-8.677 35.125h217.078c.036-.465.116-.712.065-.938-6.476-26.019-12.966-52.022-19.39-78.055-.501-2.013-1.65-2.246-3.401-2.231-8.474.051-16.948.022-25.422.043-.668
             0-1.345.24-1.89.349v22.893h5.233c9.935.065 17.689 7.595 17.762 17.261.08 9.79-7.42 17.545-17.377 17.566-42.618.072-85.228.072-127.838 0-9.819-.007-17.464-7.653-17.486-17.115-.029-9.957
             7.537-17.537 17.697-17.719 1.766-.029 3.525 0 5.364 0 0-7.995 0-15.444 0-23.249-8.991.001-17.8.131-26.601-.072zm-29.165 93.092c-6.904 0-8.976-2.492-7.304-9.28 6.606-26.738 13.321-53.439 20-80.156.785-3.161
             1.577-6.323 2.376-9.491 1.076-4.245 2.784-5.662 7.123-5.676 10.654-.029 21.309-.015 31.963-.029.458 0 .923-.124 1.788-.24 0-20.066 0-39.797 0-59.522 0-.974-.015-1.94.007-2.907.08-5.095 1.955-7.028 7.064-7.035
             19.128-.036 38.264-.029 57.393-.029 14.644 0 29.296-.007 43.947.021 6.09.007 7.82 1.73 7.82 7.748.015 19.128.007 38.257.007 57.378v4.571h3.997c9.928.015 19.855 0 29.783.043 4.201.022 6.054 1.403 7.035 5.334 7.522
             30.118 15.044 60.227 22.486 90.359 1.555 6.301-.589 8.91-7.021 8.91-54.239.021-108.478.021-162.723.021-21.91.001-43.822.001-65.741-.02z" fill="#274b47"/>
      <path d="m157.045 67.984c.734-.736 1.479-1.544 2.631-1.395.628.083 1.344.278 1.81.672 1.28 1.074 2.478 2.248 3.65 3.44 1.418 1.443 1.327 3.301-.194 4.83-5.963 5.995-11.928 11.983-17.901 17.976-4.404 4.413-8.819 8.817-13.227 13.227-1.766 1.768-3.53 1.76-5.301-.009-4.818-4.822-9.637-9.637-14.454-14.458-1.968-1.968-1.945-3.57.077-5.533.849-.823 1.72-1.634 2.573-2.454 1.696-1.636 3.146-1.649 4.804 0 2.953 2.941 5.891 5.894 8.821 8.857.234.232.363.566.692 1.086.443-.593.63-.92.883-1.172 8.375-8.36 16.754-16.717 25.136-25.067z" fill="#fff"/>
      <path d="m159.677 66.589c-1.152-.149-1.897.659-2.631 1.395-8.382 8.35-16.762 16.707-25.135 25.068-.253.252-.44.579-.883 1.172-.329-.52-.458-.854-.692-1.086-2.93-2.963-5.868-5.916-8.821-8.857-1.658-1.649-3.107-1.636-4.804 0-.853.82-1.724 1.63-2.573 2.454-2.021 1.963-2.045 3.564-.077 5.533 4.816 4.82 9.635 9.635 14.454 14.458 1.771 1.769 3.535 1.776 5.301.009 4.408-4.409 8.823-8.813 13.227-13.227 5.973-5.993 11.938-11.981 17.901-17.976 1.521-1.528 1.612-3.387.194-4.83-1.172-1.192-2.37-2.366-3.65-3.44-.467-.395-1.183-.59-1.811-.673zm-20.377 59.122c-21.407-.206-38.353-17.172-38.342-38.453.013-21.349 17.136-38.424 38.49-38.362 21.323.062 38.34 17.102 38.287 38.47-.049 21.422-17.12 38.192-38.435 38.345z" fill="#274b47"/>
</svg>