<?xml version="1.0" encoding="utf-8"?>
<svg xmlns="http://www.w3.org/2000/svg" height="256" width="256" viewBox="0 0 256 256">
  <path fill="#409388" d="M112.25 191v47.25h70.875V191zm31.5-133.875v31.5h39.375v-31.5zm-70.875 0V238.25H96.5v-55.125a7.875 7.875 0 0 1 7.875-7.875H191a7.875 7.875 0 0 1 7.875 7.875v55.125H222.5V91.885l-23.625-23.507V96.5a7.875 7.875 0 0 1-7.875 7.875h-55.125A7.875 7.875 0 0 1 128 96.5V57.125zM65 41.375h126c2.449 0 4.638 1.11 6.08 2.866l.362.48 38.485 38.305a7.875 7.875 0 0 1 2.323 5.583v157.516a7.875 7.875 0 0 1-7.875 7.875H65a7.875 7.875 0 0 1-7.875-7.875V49.25A7.868 7.868 0 0 1 65 41.375zM25.625 2H143.75v15.75H33.5v181.125H17.75v-189A7.875 7.875 0 0 1 25.625 2z"/>
</svg>
