<?xml version="1.0" encoding="utf-8"?>
<svg xmlns="http://www.w3.org/2000/svg" height="256" width="256" viewBox="0 0 256 256">
  <g>
    <path id="path1" transform="rotate(0,128,128) translate(17.7502346928691,2) scale(7.87498591842785,7.87498591842785)  " fill="#409388" d="M11.999988,24.000056L11.999988,30.000041 20.999989,30.000041 20.999989,24.000056z M15.999989,7.0000553L15.999989,11.000056 20.999989,11.000056 20.999989,7.0000553z M6.9999914,7.0000409L6.9999914,30.000041 9.9999881,30.000041 9.9999881,23.000056C9.9999881,22.447055,10.447988,22.000056,10.999988,22.000056L21.999988,22.000056C22.552989,22.000056,22.999988,22.447055,22.999988,23.000056L22.999988,30.000041 25.999991,30.000041 25.999991,11.413981 22.999988,8.4288988 22.999988,12.000056C22.999988,12.552056,22.552989,13.000055,21.999988,13.000055L14.999989,13.000055C14.447989,13.000055,13.999989,12.552056,13.999989,12.000056L13.999989,7.0000409z M5.9999912,5.0000412L21.977988,5.0000412 21.999988,5.0000555C22.311051,5.0000557,22.588574,5.1414893,22.771867,5.3636655L22.818044,5.4254475 27.705009,10.288981C27.894004,10.47697,27.999991,10.731975,27.999991,10.997966L27.999991,31.000041C27.999991,31.55302,27.553,32.000041,26.999991,32.000041L22.000291,32.000041 10.999988,32.000056 5.9999912,32.000041C5.4470129,32.000041,4.9999914,31.55302,4.9999913,31.000041L4.9999913,6.0000411C4.9999914,5.4469404,5.4470129,5.000041,5.9999912,5.0000412z M1,0L16,0 16,1.9999998 2,1.9999998 2,24.999999 0,24.999999 0,1C0,0.44700003,0.44700003,0,1,0z" />
  </g>
</svg>

