<?xml version="1.0" encoding="utf-8"?>
<svg xmlns="http://www.w3.org/2000/svg" height="256" width="256" viewBox="0 0 256 256">
  <g>
    <path id="path1" transform="rotate(0,128,128) translate(6.5516529083252,2) scale(7.875,7.875)  " fill="#FF1111" d="M13.944254,20.7L26.044089,20.7C26.344085,20.7 26.544082,20.9 26.544082,21.2 26.544082,21.5 26.344085,21.7 26.044089,21.7L13.944254,21.7C13.644258,21.7 13.444261,21.5 13.444261,21.2 13.344263,20.9 13.644258,20.7 13.944254,20.7z M13.944254,18L26.044089,18C26.344085,18 26.544082,18.2 26.544082,18.5 26.544082,18.8 26.344085,19 26.044089,19L13.944254,19C13.644258,19 13.444261,18.8 13.444261,18.5 13.344263,18.3 13.644258,18 13.944254,18z M9.5443144,16.5C9.7443113,16.5 9.9443092,16.5 10.244305,16.6 11.144293,17 11.544287,17.9 11.144293,18.8L6.0443621,31C5.8443651,31.6 5.2443733,32 4.6443806,32 4.0443897,32 3.444397,31.7 3.0444031,31.2L0.24444199,26.6C-0.25555229,25.800001 0.044445038,24.800001 0.84443283,24.300001 1.6444225,23.800001 2.6444092,24.1 3.1444016,24.899999L4.2443867,26.7 8.0443354,17.5C8.2443323,16.9,8.9443226,16.5,9.5443144,16.5z M8.7443256,6.8000001L8.7443256,8.4 10.344303,8.4 10.344303,6.8000001z M8.2443323,5.7000002L10.844296,5.7000002C11.144293,5.7,11.34429,5.9000001,11.34429,6.2000002L11.34429,8.8000001C11.34429,9.1,11.144293,9.3,10.844296,9.3L8.2443323,9.3C7.9443359,9.3,7.744339,9.1,7.744339,8.8000001L7.744339,6.3000001C7.6443405,6.0000001,7.9443359,5.7,8.2443323,5.7000002z M7.9443359,0L19.744175,0C20.044171,0,20.244168,0.099999905,20.444166,0.30000019L30.544027,10.4C30.744025,10.6,30.844024,10.9,30.844024,11.1L30.844024,27.5C30.844024,30,28.844051,32,26.344085,32L8.9443226,32C8.3443308,32 7.9443359,31.5 7.9443359,31 7.9443359,30.399999 8.4443293,30 8.9443226,30L26.444084,30C27.744066,30,28.844051,28.899999,28.844051,27.6L28.844051,12.2 22.944131,12.2C21.044157,12.2,19.544178,11.1,18.844188,9.3999999L14.044253,9.3999999C13.744257,9.4000001 13.54426,9.2 13.54426,8.9 13.54426,8.6 13.744257,8.4000001 14.044253,8.4L18.64419,8.4C18.64419,8.2,18.544192,8.0000001,18.544192,7.8000001L18.544192,6.8000001 14.044253,6.8000001C13.744257,6.8000001 13.54426,6.6000001 13.54426,6.3000001 13.54426,6.0000001 13.744257,5.8000001 14.044253,5.8000001L18.544192,5.8000001 18.544192,2 7.9443359,2C6.5443554,2,5.5443687,3.0999999,5.5443687,4.5L5.5443687,18C5.5443687,18.6 5.0443764,19 4.5443821,19 3.9443913,19 3.5443974,18.5 3.5443974,18L3.5443974,4.5C3.444397,2,5.4443703,0,7.9443359,0z" />
  </g>
</svg>

