<?xml version="1.0" encoding="utf-8"?>
<svg xmlns="http://www.w3.org/2000/svg" height="256" width="256" viewBox="0 0 256 256">
  <g>
    <path id="path1" transform="rotate(0,128,128) translate(3.37428781441129,2) scale(7.8749943673651,7.8749943673651)  " fill="#409388" d="M25.369838,3.2038372C24.618836,3.1938274 23.869849,3.4998594 23.346841,4.1018527 22.416856,5.1728428 22.551848,6.7788699 23.649848,7.6858576 24.745833,8.5938828 26.389821,8.4608863 27.319821,7.3918493 28.247809,6.3208592 28.114814,4.7148321 27.016814,3.8068679 26.537829,3.4088555 25.952826,3.2108562 25.369838,3.2038372z M21.936847,0.00081616286C24.143834,0.028831268 26.353826,0.77883557 28.167808,2.2818346 32.31878,5.716852 32.832784,11.78488 29.31581,15.838919 26.875825,18.648933 23.151851,19.711927 19.710864,18.972909L16.400889,22.785981C16.400889,22.785981,13.852903,22.622955,12.093927,23.23093L4.7509751,31.698018 0.26000805,32.000024 0,29.33802 11.109925,16.531917C11.008928,15.864921,10.894931,15.389942,10.894931,15.389942L12.738913,13.267921C11.383925,10.050862 11.827923,6.2378509 14.290903,3.3998223 16.267896,1.1208175 19.099877,-0.035194976 21.936847,0.00081616286z" />
  </g>
</svg>

