<?xml version="1.0" encoding="utf-8"?>
<svg xmlns="http://www.w3.org/2000/svg" height="256" width="256" viewBox="0 0 256 256">
  <path fill="#777" d="M116.361 165.012h95.288c2.362 0 3.937 1.575 3.937 3.938s-1.575 3.938-3.938 3.938h-95.287c-2.362 0-3.937-1.576-3.937-3.938-.788-2.362 1.575-3.938 3.937-3.938zm0-21.262h95.288c2.362 0 3.937 1.575 3.937 3.938s-1.575 3.937-3.938 3.937h-95.287c-2.362 0-3.937-1.575-3.937-3.938-.788-1.575 1.575-3.937 3.937-3.937zm-34.65-11.813c1.575 0 3.15 0 5.513.788 7.087 3.15 10.237 10.238 7.087 17.325l-40.163 96.075c-1.575 4.725-6.3 7.875-11.025 7.875-4.724 0-9.45-2.362-12.6-6.3l-22.05-36.225c-3.937-6.3-1.574-14.175 4.726-18.112 6.3-3.938 14.175-1.575 18.112 4.725l8.663 14.175 29.925-72.45c1.574-4.725 7.087-7.875 11.812-7.875zm-6.3-76.387v12.6h12.6v-12.6zm-3.937-8.662h20.475c2.362 0 3.937 1.575 3.937 3.937V71.3c0 2.363-1.575 3.938-3.937 3.938H71.474c-2.363 0-3.938-1.575-3.938-3.938V51.612c-.788-2.362 1.575-4.725 3.938-4.725zM69.11 2h92.925c2.363 0 3.938.788 5.513 2.363L247.086 83.9c1.575 1.575 2.362 3.938 2.362 5.512v129.15c0 19.688-15.75 35.438-35.437 35.438H76.986c-4.725 0-7.875-3.938-7.875-7.875 0-4.725 3.938-7.875 7.875-7.875h137.813c10.237 0 18.9-8.663 18.9-18.9V98.075h-46.463c-14.963 0-26.775-8.663-32.288-22.05h-37.8c-2.362 0-3.937-1.575-3.937-3.938s1.575-3.937 3.937-3.937h36.225c0-1.575-.787-3.15-.787-4.725V55.55h-35.438c-2.362 0-3.937-1.575-3.937-3.938s1.575-3.937 3.937-3.937h35.438V17.75H69.111c-11.025 0-18.9 8.663-18.9 19.688V143.75c0 4.725-3.938 7.875-7.875 7.875-4.725 0-7.875-3.938-7.875-7.875V37.437C33.673 17.75 49.423 2 69.111 2z"/>
</svg>
