<svg xmlns="http://www.w3.org/2000/svg" height="256" width="256" viewBox="0 0 256 256">
  <path fill="#F11" d="M203.163 27.232c-5.914-.08-11.813 2.33-15.931 7.071a19.695 19.695 0 0 0 2.386 28.224 20.869 20.869 0 0 0 28.901-2.315 19.719 19.719 0 0 0-2.386-28.232 20.633 20.633 0 0 0-12.97-4.749zM176.128 2a78.254 78.254 0 0 1 49.061 17.955c32.697 27.058 36.745 74.844 9.049 106.77-19.215 22.128-48.542 30.5-75.64 24.68l-26.066 30.027s-20.066-1.284-33.918 3.504L40.78 251.622 5.422 254l-2.048-20.963L90.865 132.19c-.795-5.253-1.693-8.994-1.693-8.994l14.522-16.71c-10.671-25.334-7.175-55.362 12.222-77.711C131.485 10.82 153.786 1.725 176.128 2z"/>
</svg>
